<svg width="12" height="12" viewBox="0 0 12 12" fill="none" xmlns="http://www.w3.org/2000/svg">
<path fill-rule="evenodd" clip-rule="evenodd" d="M11.5676 0.432407C12.1441 1.00895 12.1441 1.94371 11.5676 2.52025L8.08785 6L11.5676 9.47975C12.1441 10.0563 12.1441 10.991 11.5676 11.5676C10.991 12.1441 10.0563 12.1441 9.47975 11.5676L6 8.08785L2.52025 11.5676C1.94371 12.1441 1.00895 12.1441 0.432407 11.5676C-0.144136 10.991 -0.144136 10.0563 0.432407 9.47975L3.91215 6L0.432407 2.52025C-0.144136 1.94371 -0.144136 1.00895 0.432407 0.432407C1.00895 -0.144136 1.94371 -0.144136 2.52025 0.432407L6 3.91215L9.47975 0.432407C10.0563 -0.144136 10.991 -0.144136 11.5676 0.432407Z" fill="#8D9195"/>
</svg>
