<svg width="20" height="20" viewBox="0 0 20 20" fill="none" xmlns="http://www.w3.org/2000/svg">
<path fill-rule="evenodd" clip-rule="evenodd" d="M13 8C13 10.7614 10.7614 13 8 13C5.23858 13 3 10.7614 3 8C3 5.23858 5.23858 3 8 3C10.7614 3 13 5.23858 13 8ZM12.5683 14.5683C11.2731 15.4708 9.69833 16 8 16C3.58172 16 0 12.4183 0 8C0 3.58172 3.58172 0 8 0C12.4183 0 16 3.58172 16 8C16 9.63573 15.5091 11.1568 14.6665 12.4239L19.0606 16.818C19.6464 17.4038 19.6464 18.3536 19.0606 18.9393C18.4749 19.5251 17.5251 19.5251 16.9393 18.9393L12.5683 14.5683Z" fill="white"/>
</svg>
