<svg width="17" height="18" viewBox="0 0 17 18" fill="none" xmlns="http://www.w3.org/2000/svg">
<path d="M12.8628 4.21918C12.8628 6.54936 10.9738 8.43835 8.64361 8.43835C6.31343 8.43835 4.42444 6.54936 4.42444 4.21918C4.42444 1.88899 6.31343 0 8.64361 0C10.9738 0 12.8628 1.88899 12.8628 4.21918Z" fill="#8D9195"/>
<path d="M1.16954 13.469C2.55467 12.3796 5.31128 10.6164 8.64361 10.6164C11.9759 10.6164 14.7326 12.3796 16.1177 13.469C16.736 13.9552 16.9288 14.7772 16.6847 15.5249L16.3515 16.5452C16.0682 17.4129 15.2589 18 14.3461 18H2.9411C2.0283 18 1.21904 17.4129 0.935711 16.5452L0.602557 15.5249C0.358404 14.7772 0.55127 13.9552 1.16954 13.469Z" fill="#8D9195"/>
</svg>
