<svg width="19" height="18" viewBox="0 0 19 18" fill="none" xmlns="http://www.w3.org/2000/svg">
<path fill-rule="evenodd" clip-rule="evenodd" d="M0.5 16.5V1.5C0.5 0.7 1.19613 0 1.99171 0H17.0083C17.8039 0 18.5 0.7 18.5 1.5V16.5C18.5 17.3 17.8039 18 17.0083 18H1.99171C1.19613 18 0.5 17.3 0.5 16.5ZM6.46685 16H8.4558V14H6.46685V16ZM12.4337 16H10.4448V14H12.4337V16ZM14.4227 16H16.4116V14H14.4227V16ZM14.4227 12H16.4116V10H14.4227V12ZM12.4337 10H10.4448V12H12.4337V10ZM12.4337 8H10.4448V6H12.4337V8ZM14.4227 8H16.4116V6H14.4227V8ZM6.46685 10H8.4558V12H6.46685V10ZM6.46685 8H8.4558V6H6.46685V8ZM4.4779 16V14H2.48895V16H4.4779ZM4.4779 10V12H2.48895V10H4.4779ZM4.4779 6V8H2.48895V6H4.4779Z" fill="#8D9195"/>
</svg>
