<svg width="21" height="20" viewBox="0 0 21 20" fill="none" xmlns="http://www.w3.org/2000/svg">
<path fill-rule="evenodd" clip-rule="evenodd" d="M10.5 20C4.986 20 0.5 15.514 0.5 10C0.5 4.486 4.986 0 10.5 0C16.014 0 20.5 4.486 20.5 10C20.5 15.514 16.014 20 10.5 20ZM11.5 5C11.5 4.44772 11.0523 4 10.5 4C9.94771 4 9.5 4.44772 9.5 5V10C9.5 10.2652 9.60536 10.5196 9.79289 10.7071L12.7929 13.7071C13.1834 14.0976 13.8166 14.0976 14.2071 13.7071C14.5976 13.3166 14.5976 12.6834 14.2071 12.2929L11.5 9.58579V5Z" fill="#8D9195"/>
</svg>
