<svg width="135" height="32" viewBox="0 0 135 32" fill="none" xmlns="http://www.w3.org/2000/svg">
<path d="M41.2607 21.0793V11.3676H43.6421V12.9862H43.7352C43.9336 12.4653 44.2437 12.0312 44.6654 11.6839C45.0995 11.3242 45.6949 11.1444 46.4514 11.1444C47.4561 11.1444 48.2251 11.4731 48.7584 12.1304C49.2918 12.7878 49.5584 13.7242 49.5584 14.9397V21.0793H47.177V15.1816C47.177 14.487 47.053 13.9661 46.8049 13.6188C46.5569 13.2715 46.1476 13.0979 45.577 13.0979C45.329 13.0979 45.0871 13.1351 44.8514 13.2095C44.6282 13.2715 44.4235 13.3707 44.2375 13.5072C44.0638 13.6312 43.9212 13.7924 43.8096 13.9909C43.698 14.1769 43.6421 14.4002 43.6421 14.6607V21.0793H41.2607Z" fill="white"/>
<path d="M55.5657 21.3025C54.8463 21.3025 54.2013 21.1847 53.6308 20.949C53.0727 20.701 52.5951 20.3599 52.1982 19.9258C51.8137 19.4793 51.5161 18.9459 51.3052 18.3258C51.0944 17.6932 50.9889 16.9862 50.9889 16.2048C50.9889 15.4359 51.0882 14.7413 51.2866 14.1211C51.4975 13.501 51.7951 12.9738 52.1796 12.5397C52.5641 12.0932 53.0355 11.7521 53.5936 11.5165C54.1517 11.2684 54.7843 11.1444 55.4913 11.1444C56.2479 11.1444 56.9052 11.2746 57.4634 11.5351C58.0215 11.7955 58.4804 12.149 58.8401 12.5955C59.1998 13.0421 59.4665 13.563 59.6401 14.1583C59.8261 14.7413 59.9192 15.3676 59.9192 16.0374V16.8188H53.4634V17.0607C53.4634 17.7676 53.6618 18.3382 54.0587 18.7723C54.4556 19.194 55.0448 19.4048 55.8261 19.4048C56.4215 19.4048 56.9052 19.2808 57.2773 19.0328C57.6618 18.7847 58.0029 18.4684 58.3006 18.0839L59.5843 19.5165C59.1874 20.0746 58.6417 20.5149 57.9471 20.8374C57.2649 21.1475 56.4711 21.3025 55.5657 21.3025ZM55.5285 12.9304C54.8959 12.9304 54.3936 13.1413 54.0215 13.563C53.6494 13.9847 53.4634 14.5304 53.4634 15.2002V15.349H57.4448V15.1816C57.4448 14.5118 57.2773 13.9723 56.9424 13.563C56.6199 13.1413 56.1486 12.9304 55.5285 12.9304Z" fill="white"/>
<path d="M61.4562 11.3676H63.8376V12.9676H63.9121C64.0857 12.4095 64.4144 11.9692 64.8981 11.6467C65.3818 11.3118 65.9462 11.1444 66.5911 11.1444C67.8314 11.1444 68.7741 11.5847 69.419 12.4653C70.0764 13.3335 70.4051 14.58 70.4051 16.2048C70.4051 17.8421 70.0764 19.101 69.419 19.9816C68.7741 20.8622 67.8314 21.3025 66.5911 21.3025C65.9462 21.3025 65.3818 21.1351 64.8981 20.8002C64.4268 20.4653 64.0981 20.0188 63.9121 19.4607H63.8376V24.8002H61.4562V11.3676ZM65.8283 19.3304C66.4485 19.3304 66.9508 19.1258 67.3353 18.7165C67.7198 18.3072 67.9121 17.7552 67.9121 17.0607V15.3862C67.9121 14.6917 67.7198 14.1397 67.3353 13.7304C66.9508 13.3087 66.4485 13.0979 65.8283 13.0979C65.2578 13.0979 64.7803 13.2405 64.3958 13.5258C64.0237 13.811 63.8376 14.1893 63.8376 14.6607V17.749C63.8376 18.2576 64.0237 18.6483 64.3958 18.9211C64.7803 19.194 65.2578 19.3304 65.8283 19.3304Z" fill="white"/>
<path d="M74.9772 21.0793C74.1586 21.0793 73.5322 20.8684 73.0981 20.4467C72.6764 20.0126 72.4655 19.3986 72.4655 18.6048V13.2653H71.033V11.3676H71.7772C72.1369 11.3676 72.3787 11.287 72.5027 11.1258C72.6392 10.9521 72.7074 10.6979 72.7074 10.363V8.70717H74.8469V11.3676H76.8376V13.2653H74.8469V19.1816H76.6888V21.0793H74.9772Z" fill="white"/>
<path d="M84.1497 19.4607H84.0567C83.9699 19.7087 83.852 19.9444 83.7032 20.1676C83.5667 20.3785 83.3869 20.5707 83.1636 20.7444C82.9528 20.918 82.6923 21.0545 82.3823 21.1537C82.0846 21.2529 81.7373 21.3025 81.3404 21.3025C80.3357 21.3025 79.5667 20.9738 79.0334 20.3165C78.5001 19.6591 78.2334 18.7227 78.2334 17.5072V11.3676H80.6148V17.2653C80.6148 17.9351 80.745 18.4498 81.0055 18.8095C81.266 19.1568 81.6815 19.3304 82.252 19.3304C82.4877 19.3304 82.7171 19.2994 82.9404 19.2374C83.1761 19.1754 83.3807 19.0824 83.5543 18.9583C83.728 18.8219 83.8706 18.6607 83.9823 18.4746C84.0939 18.2762 84.1497 18.0467 84.1497 17.7862V11.3676H86.5311V21.0793H84.1497V19.4607Z" fill="white"/>
<path d="M88.7244 21.0793V11.3676H91.1058V12.9862H91.1988C91.3973 12.4653 91.7073 12.0312 92.1291 11.6839C92.5632 11.3242 93.1585 11.1444 93.9151 11.1444C94.9198 11.1444 95.6887 11.4731 96.2221 12.1304C96.7554 12.7878 97.0221 13.7242 97.0221 14.9397V21.0793H94.6407V15.1816C94.6407 14.487 94.5167 13.9661 94.2686 13.6188C94.0205 13.2715 93.6112 13.0979 93.0407 13.0979C92.7926 13.0979 92.5508 13.1351 92.3151 13.2095C92.0918 13.2715 91.8872 13.3707 91.7011 13.5072C91.5275 13.6312 91.3849 13.7924 91.2732 13.9909C91.1616 14.1769 91.1058 14.4002 91.1058 14.6607V21.0793H88.7244Z" fill="white"/>
<path d="M103.029 21.3025C102.31 21.3025 101.665 21.1847 101.094 20.949C100.536 20.701 100.059 20.3599 99.6619 19.9258C99.2774 19.4793 98.9797 18.9459 98.7689 18.3258C98.558 17.6932 98.4526 16.9862 98.4526 16.2048C98.4526 15.4359 98.5518 14.7413 98.7503 14.1211C98.9611 13.501 99.2588 12.9738 99.6433 12.5397C100.028 12.0932 100.499 11.7521 101.057 11.5165C101.615 11.2684 102.248 11.1444 102.955 11.1444C103.712 11.1444 104.369 11.2746 104.927 11.5351C105.485 11.7955 105.944 12.149 106.304 12.5955C106.663 13.0421 106.93 13.563 107.104 14.1583C107.29 14.7413 107.383 15.3676 107.383 16.0374V16.8188H100.927V17.0607C100.927 17.7676 101.125 18.3382 101.522 18.7723C101.919 19.194 102.508 19.4048 103.29 19.4048C103.885 19.4048 104.369 19.2808 104.741 19.0328C105.125 18.7847 105.467 18.4684 105.764 18.0839L107.048 19.5165C106.651 20.0746 106.105 20.5149 105.411 20.8374C104.729 21.1475 103.935 21.3025 103.029 21.3025ZM102.992 12.9304C102.36 12.9304 101.857 13.1413 101.485 13.563C101.113 13.9847 100.927 14.5304 100.927 15.2002V15.349H104.908V15.1816C104.908 14.5118 104.741 13.9723 104.406 13.563C104.084 13.1413 103.612 12.9304 102.992 12.9304Z" fill="white"/>
<path d="M110.025 21.2839C109.516 21.2839 109.138 21.1599 108.89 20.9118C108.654 20.6514 108.536 20.3227 108.536 19.9258V19.5909C108.536 19.194 108.654 18.8653 108.89 18.6048C109.138 18.3444 109.516 18.2141 110.025 18.2141C110.545 18.2141 110.924 18.3444 111.159 18.6048C111.395 18.8653 111.513 19.194 111.513 19.5909V19.9258C111.513 20.3227 111.395 20.6514 111.159 20.9118C110.924 21.1599 110.545 21.2839 110.025 21.2839Z" fill="white"/>
<path d="M120.848 21.0793C120.327 21.0793 119.911 20.9304 119.601 20.6328C119.303 20.3227 119.117 19.9134 119.043 19.4048H118.931C118.77 20.0374 118.441 20.5149 117.945 20.8374C117.449 21.1475 116.835 21.3025 116.103 21.3025C115.111 21.3025 114.348 21.0421 113.815 20.5211C113.282 20.0002 113.015 19.3056 113.015 18.4374C113.015 17.4328 113.375 16.6886 114.094 16.2048C114.813 15.7087 115.837 15.4607 117.164 15.4607H118.82V14.7537C118.82 14.2079 118.677 13.7862 118.392 13.4886C118.106 13.1909 117.648 13.0421 117.015 13.0421C116.457 13.0421 116.004 13.1661 115.657 13.4141C115.322 13.6498 115.037 13.9351 114.801 14.27L113.387 13.0048C113.747 12.4467 114.224 12.0002 114.82 11.6653C115.415 11.318 116.203 11.1444 117.182 11.1444C118.497 11.1444 119.496 11.4421 120.178 12.0374C120.86 12.6328 121.201 13.4886 121.201 14.6048V19.1816H122.168V21.0793H120.848ZM116.903 19.5723C117.437 19.5723 117.889 19.4545 118.261 19.2188C118.634 18.9831 118.82 18.6359 118.82 18.1769V16.8932H117.294C116.054 16.8932 115.434 17.2901 115.434 18.0839V18.4002C115.434 18.7971 115.558 19.0948 115.806 19.2932C116.066 19.4793 116.432 19.5723 116.903 19.5723Z" fill="white"/>
<path d="M124.728 9.95368C124.232 9.95368 123.873 9.84206 123.649 9.6188C123.438 9.39554 123.333 9.11027 123.333 8.76299V8.39089C123.333 8.04361 123.438 7.75833 123.649 7.53508C123.873 7.31182 124.232 7.2002 124.728 7.2002C125.212 7.2002 125.566 7.31182 125.789 7.53508C126.012 7.75833 126.124 8.04361 126.124 8.39089V8.76299C126.124 9.11027 126.012 9.39554 125.789 9.6188C125.566 9.84206 125.212 9.95368 124.728 9.95368ZM123.538 11.3676H125.919V21.0793H123.538V11.3676Z" fill="white"/>
<path d="M32.0381 16C32.0381 24.8366 24.8662 32 16.0191 32C7.17198 32 0 24.8366 0 16C0 7.16344 7.17198 0 16.0191 0C24.8662 0 32.0381 7.16344 32.0381 16Z" fill="#5B69C2"/>
<path fill-rule="evenodd" clip-rule="evenodd" d="M19.1303 8.9375C19.5602 8.9375 19.9168 9.04948 20.2152 9.28453C20.4998 9.50861 20.733 9.84876 20.9189 10.3286C21.326 11.3894 21.6541 12.455 21.896 13.4945C22.1936 14.7792 22.4533 16.0818 22.7053 17.346C22.8335 17.9892 22.9628 18.6321 23.0946 19.2745C23.1402 19.4995 23.2277 19.9044 23.3009 20.1087C23.406 20.3364 23.5372 20.4229 23.6367 20.4404C23.7941 20.4679 23.9138 20.3611 23.9528 20.3233C24.207 20.0437 24.1669 19.6192 24.2352 19.2729C24.3777 18.5294 24.5177 17.781 24.6554 17.0349L24.836 16.0625C24.8983 15.7305 25.0229 15.4976 25.2051 15.3452C25.3891 15.1913 25.6367 15.1141 25.9658 15.1226C26.2086 15.1271 26.4273 15.2388 26.5924 15.4067C26.7702 15.5874 26.8827 15.8317 26.8995 16.0601C26.9267 16.4432 26.8792 16.7795 26.7703 17.3056C26.6912 17.6941 26.6165 18.1018 26.5386 18.5091C26.3443 19.5222 26.1309 20.5491 25.7663 21.4203C25.534 21.9759 25.1536 22.4421 24.7276 22.7069C24.2229 23.0203 23.7371 23.1214 23.2932 23.0306C22.8495 22.94 22.441 22.6561 22.0967 22.1696C21.6377 21.5193 21.3177 20.7239 21.0711 19.5864C20.828 18.4765 20.5956 17.3469 20.3662 16.2317C20.3309 16.06 20.2956 15.8886 20.2603 15.7173C20.1014 14.9392 19.9295 14.163 19.78 13.3831C19.6276 12.6189 19.4983 12.107 19.3605 11.7872C19.3041 11.6561 19.249 11.561 19.1867 11.5004C19.0962 11.4123 18.9554 11.4322 18.8702 11.5194C18.805 11.5862 18.7478 11.6946 18.7033 11.8597C18.6491 12.0064 18.4508 12.8465 18.4159 13.0134C18.2727 13.7098 18.1367 14.4077 17.9984 15.1051C17.7906 16.1533 17.5871 17.1835 17.5871 17.1835C17.3019 18.6017 17.0065 20.0651 16.4824 21.4021C16.2769 21.9268 15.976 22.3449 15.6169 22.6292C15.2479 22.9212 14.8171 23.0739 14.3589 23.0598C13.7844 23.0487 13.2659 22.7463 12.9406 22.2247C12.6909 21.8242 12.3537 21.1987 12.1653 20.4881C11.8512 19.3037 11.5871 18.0742 11.3301 16.8779C11.2507 16.5012 11.1701 16.1318 11.0894 15.7627C10.9466 15.1124 10.8111 14.4621 10.673 13.7947C10.6444 13.6545 10.6015 13.4476 10.5587 13.229C10.484 12.8585 10.4197 12.4838 10.3274 12.117C10.2786 11.926 10.229 11.7212 10.112 11.5588C10.008 11.4145 9.86152 11.4139 9.74975 11.5511C9.63196 11.6956 9.57111 11.9067 9.53376 12.0275C9.45104 12.2447 9.09471 13.9667 9.03382 14.2986C8.91228 14.957 8.78601 15.6393 8.6431 16.3024C8.57423 16.6228 8.40121 16.8766 8.16106 17.0248C7.8982 17.1863 7.57741 17.2166 7.25542 17.1009C7.04522 17.0267 6.86377 16.8728 6.74078 16.6786C6.61838 16.4852 6.55479 16.2534 6.57356 16.0273C6.62402 15.4085 6.73193 14.7415 6.92663 13.8662C7.24154 12.4391 7.61243 11.3121 8.09077 10.3191C8.29252 9.87952 8.57729 9.5908 8.86694 9.40033C9.40936 9.04364 9.9717 9.03419 10.0528 9.03457C10.3967 9.04782 10.7587 9.15157 11.0775 9.39462C11.3381 9.59333 11.5714 9.88586 11.735 10.3036C12.1399 11.3363 12.4681 12.3881 12.7101 13.428C13.0203 14.7623 13.2845 16.1062 13.5538 17.4491C13.6737 18.0471 13.7937 18.6452 13.916 19.2434C13.99 19.5911 14.0769 20.0949 14.3319 20.3483C14.5596 20.5745 14.7569 20.2848 14.8394 20.0858C14.9936 19.7163 15.0387 19.2554 15.1183 18.8633C15.4549 17.1977 15.7567 15.5253 16.1171 13.8645C16.401 12.5554 16.6799 11.3887 17.2094 10.3465C17.425 9.92178 17.6761 9.54415 18.0198 9.28816C18.3115 9.07082 18.6692 8.9375 19.1303 8.9375Z" fill="white"/>
<path fill-rule="evenodd" clip-rule="evenodd" d="M6.36664 20.1875C6.80241 20.1875 7.19114 20.3635 7.47439 20.6456C7.76152 20.9315 7.93994 21.3266 7.94687 21.7568C7.95389 22.1557 7.78929 22.5543 7.50628 22.858C7.21875 23.171 6.82469 23.3649 6.41412 23.374C5.97112 23.3907 5.57615 23.1942 5.2823 22.8938C4.9879 22.5926 4.81836 22.1879 4.81836 21.7797C4.82007 21.3458 4.99322 20.9485 5.27389 20.6594C5.55297 20.3718 5.93797 20.1911 6.36664 20.1875Z" fill="white"/>
</svg>
